<svg width="1152" height="700" viewBox="0 0 1152 700" fill="none" xmlns="http://www.w3.org/2000/svg">
<g clip-path="url(#clip0)">
<rect width="1152" height="700" fill="#FAFAFA"/>
<path fill-rule="evenodd" clip-rule="evenodd" d="M134.885 50.54C202.467 53.2262 270.562 61.8563 325.457 93.1922C380.488 124.605 416.846 171.89 437.236 223.13C457.487 274.019 463.292 329.416 439.301 379.275C415.977 427.748 361.384 459.594 308.651 490.36C255.555 521.337 200.827 557.479 134.885 556.878C69.2186 556.279 20.1268 514.222 -35.998 487.217C-98.5591 457.114 -187.709 444.901 -211.684 390.122C-235.659 335.343 -174.275 282.311 -149.563 227.737C-125.837 175.339 -125.355 111.884 -70.111 77.4697C-14.3026 42.7038 63.9709 47.7214 134.885 50.54Z" fill="#0073AE"/>
<path fill-rule="evenodd" clip-rule="evenodd" d="M62.8866 421.445C124.508 376.163 169.064 287.491 252.25 297.069C334.664 306.559 341.763 402.566 385.672 458.612C417.908 499.757 456.367 535.281 475.009 581.398C497.149 636.167 539.179 698.507 502.76 748.259C466.263 798.117 369.226 784.172 305.848 812.488C236.228 843.591 196.053 918.099 116.202 920.96C34.2659 923.896 -36.3286 874.243 -92.2932 826.754C-147.401 779.992 -202.992 721.326 -193.974 657.76C-185.251 596.276 -99.4679 564.965 -48.5019 518.076C-11.6729 484.192 21.505 451.854 62.8866 421.445Z" fill="#0073AE"/>
<path fill-rule="evenodd" clip-rule="evenodd" d="M344.601 -368.993C416.62 -368.223 455.326 -301.735 503.65 -259.435C541.465 -226.333 576.369 -192.632 594.393 -150.336C612.595 -107.62 623.722 -61.6292 606.22 -18.7303C588.702 24.2072 539.722 50.7966 499.345 82.6322C450.018 121.525 413.488 179.661 344.601 187.548C274.224 195.605 214.665 150.999 153.538 122.224C85.3024 90.1021 -17.0802 72.5174 -31.1818 10.6487C-45.645 -52.8067 48.3791 -96.424 91.2029 -151.264C121.371 -189.897 143.531 -229.468 182.403 -262.868C231.126 -304.733 272.719 -369.762 344.601 -368.993Z" fill="#0073AE"/>
<path d="M512.079 315.211C359.044 107.596 611.251 52.7208 621.144 -50.7895L-49.7108 -115L-60 739L621.144 721.877C621.144 721.877 665.114 522.825 512.079 315.211Z" fill="#0073AE"/>
</g>
<defs>
<clipPath id="clip0">
<rect width="1152" height="700" fill="white"/>
</clipPath>
</defs>
</svg>
